<?xml version="1.0" encoding="UTF-8"?>
<svg width="54px" height="41px" viewBox="0 0 54 41" version="1.1" xmlns="http://www.w3.org/2000/svg" xmlns:xlink="http://www.w3.org/1999/xlink">
    <!-- Generator: sketchtool 54.1 (76490) - https://sketchapp.com -->
    <title>D4B366BA-7448-426F-889F-2BA75EF57C50</title>
    <desc>Created with sketchtool.</desc>
    <g id="Page-1" stroke="none" stroke-width="1" fill="none" fill-rule="evenodd">
        <g id="Exercise" transform="translate(-56.000000, -476.000000)">
            <g id="artwork" transform="translate(16.000000, 24.000000)">
                <g id="Stacked-Group" transform="translate(19.000000, 405.000000)">
                    <g id="Selected">
                        <g id="Wheater/Day" transform="translate(20.000000, 12.000000)">
                            <g id="Wheater/Small/Rain" transform="translate(1.000000, 35.000000)">
                                <g id="Weather">
                                    <path d="M20.2890625,34.7241101 L15.6953125,39.1103139" id="Line-6" stroke="#FFFFFF" stroke-width="2" stroke-linecap="round"></path>
                                    <path d="M26.4140625,34.7241101 L21.8203125,39.1103139" id="Line-7" stroke="#FFFFFF" stroke-width="2" stroke-linecap="round"></path>
                                    <path d="M32.5390625,34.7241101 L27.9453125,39.1103139" id="Line-8" stroke="#FFFFFF" stroke-width="2" stroke-linecap="round"></path>
                                    <path d="M27.5663361,31.4344598 C27.5650574,31.4344601 27.5637787,31.4344602 27.5625,31.4344602 C27.5611089,31.4344602 27.5597178,31.4344601 27.5583268,31.4344598 L9.95595736,31.4344598 C9.95501326,31.4344601 9.95406914,31.4344602 9.953125,31.4344602 C9.95203341,31.4344602 9.95094188,31.4344601 9.94985039,31.4344598 L9.1875,31.4344598 L9.1875,31.4093304 C3.90335587,31.0605629 0,27.1300619 0,22.6620526 C0,17.2497992 4.28477486,13.158611 9.953125,13.158611 C10.2961707,13.158611 10.6361911,13.1786409 10.9719299,13.2177517 C12.3415429,5.59370091 19.1157202,-2.37385869e-14 27.5625,-2.37385869e-14 C34.5396696,-2.37385869e-14 40.6576105,4.51719123 42.8142801,10.9656694 C42.8345069,10.9655622 42.8547469,10.9655086 42.875,10.9655086 C48.7948022,10.9655086 53.59375,15.5476393 53.59375,21.1999839 C53.59375,26.6065305 49.2031016,31.0339181 43.640625,31.4087532 L43.640625,31.4344598 L27.5663361,31.4344598 Z" id="Oval-1" fill="#FFFFFF"></path>
                                </g>
                            </g>
                        </g>
                    </g>
                </g>
            </g>
        </g>
    </g>
</svg>